<svg id="Layer_1" data-name="Layer 1" xmlns="http://www.w3.org/2000/svg" viewBox="0 0 250.21 248.39"><defs><style>.cls-1{fill:#191919;}.cls-2{fill:#007aff;}</style></defs><path class="cls-1" d="M184.09,366.4l25.65-95.86-46.13-12.35q-15.69-4.2-25.12-15.39a57.08,57.08,0,0,1-12.41-25.7,61.85,61.85,0,0,1,.84-28.76,57.76,57.76,0,0,1,9.26-19.14,59.58,59.58,0,0,1,36.25-23.29,48.58,48.58,0,0,1,22.55.85L267,166,211.38,373.7Zm49.17-183.77L190,171.06a24.71,24.71,0,0,0-14.23.46,30.92,30.92,0,0,0-13,8.43,35.33,35.33,0,0,0-8.29,15.51,40.56,40.56,0,0,0-1.05,17.45A29.94,29.94,0,0,0,159.55,227a22.77,22.77,0,0,0,12.15,7.78l44.44,11.89Z" transform="translate(-124.78 -125.31)"/><path class="cls-1" d="M261.83,284.45l42.58-159.14,27.29,7.3L295.52,267.84,375,289.1,368.6,313Z" transform="translate(-124.78 -125.31)"/><polygon class="cls-2" points="59.31 241.09 86.6 248.39 112.25 152.5 84.96 145.22 59.31 241.09"/><polygon class="cls-2" points="179.63 0 206.92 7.3 170.74 142.53 143.44 135.25 179.63 0"/><polygon class="cls-2" points="143.44 135.25 170.74 142.53 137.05 159.13 143.44 135.25"/><polygon class="cls-2" points="91.36 121.31 118.64 128.62 112.25 152.5 91.36 121.31"/><polygon class="cls-2" points="142.17 40.71 108.48 57.32 91.36 121.31 118.64 128.62 142.17 40.71"/></svg>