<svg xmlns="http://www.w3.org/2000/svg" viewBox="0 0 871.04 109.28"><defs><style>.cls-1{fill:#fff;}</style></defs><g id="Layer_2" data-name="Layer 2"><g id="Layer_1-2" data-name="Layer 1"><path class="cls-1" d="M28.79,23.92H0V7.16H76.91V23.92H47.84v83.49H28.79Z"/><path class="cls-1" d="M89.08,0h18.48V41.25h1.14c3-5.59,10.31-11,20.91-11,16.9,0,27.21,11.89,27.21,27.93v49.26H138.21V63c0-9.17-6.16-15.33-14.76-15.33-8.88,0-15.75,6.88-15.75,16.19v43.53H89.08Z"/><path class="cls-1" d="M171.14,70.18c0-23.78,15.9-40,38-40,24.2,0,37.38,17.9,37.38,39.1v5.87H189.19c.57,11.46,8.45,19.19,20.48,19.19,9.16,0,16.18-4.3,18.76-10.45h17.33c-3.72,15.32-17.19,25.35-36.66,25.35C186.9,109.28,171.14,92.66,171.14,70.18ZM228.72,62c-.86-10.17-8.74-16.9-19.62-16.9A19.35,19.35,0,0,0,189.48,62Z"/><path class="cls-1" d="M301.61,7.16h19.05V44.41a6.17,6.17,0,0,0,8.48,5.71l32.08-13a6.16,6.16,0,0,0,3.84-5.71V7.16h19.05V107.41H365.06V62.72A6.16,6.16,0,0,0,356.58,57l-32.08,13a6.16,6.16,0,0,0-3.84,5.7v31.66H301.61Z"/><path class="cls-1" d="M395.56,70.18c0-23.63,14.32-40,34.95-40a27.26,27.26,0,0,1,22.91,11.6h1V32.08H473v75.33H454.71V97.82h-1c-2.15,3.15-8.88,11.46-22.63,11.46C410,109.28,395.56,93.52,395.56,70.18Zm59.29-.29c0-14.18-8.59-22.77-20.33-22.77s-20,9.45-20,22.77c0,13.61,8.16,22.63,20.19,22.63C447.12,92.52,454.85,82.49,454.85,69.89Z"/><path class="cls-1" d="M492.09,32.08H509.7V44.4h1.15a21.29,21.29,0,0,1,19.76-12.61h6.88V49.55h-7.74c-11.88,0-19,8.74-19,22.2v35.66H492.09Z"/><path class="cls-1" d="M572.86,97.82h-1v9.59H553.53V0h18.61V41.82h1c2.43-3.87,9.74-11.6,22.91-11.6,20.63,0,35,16.33,35,40,0,23.34-14.47,39.1-35.52,39.1C581.74,109.28,574.87,101,572.86,97.82ZM612.1,69.89c0-13.32-8.16-22.77-20.19-22.77-11.6,0-20.2,8.59-20.2,22.77,0,12.6,7.74,22.63,20.06,22.63S612.1,83.5,612.1,69.89Z"/><path class="cls-1" d="M642.75,69.75c0-22.34,16.33-39.53,40.1-39.53S723,47.41,723,69.75s-16.61,39.53-40.1,39.53S642.75,92.23,642.75,69.75Zm61.3,0c0-13-8.88-22.63-21.2-22.63s-21.2,9.59-21.2,22.63c0,13.32,8.88,22.63,21.2,22.63S704.05,82.92,704.05,69.75Z"/><path class="cls-1" d="M738.56,81.35V32.08h18.62V76.62c0,9.17,6,15.47,14.61,15.47,9,0,15.46-7.3,15.46-16.76V32.08h18.62v75.33H788.11V98.25H787c-3,5.58-10.46,11-21.05,11C749,109.28,738.56,97.39,738.56,81.35Z"/><path class="cls-1" d="M825.63,32.08h17.62V44.4h1.15a21.29,21.29,0,0,1,19.76-12.61H871V49.55H863.3c-11.89,0-19,8.74-19,22.2v35.66H825.63Z"/></g></g></svg>